<svg id="Layer_1" data-name="Layer 1" xmlns="http://www.w3.org/2000/svg" xmlns:xlink="http://www.w3.org/1999/xlink" viewBox="0 0 350.31 410.94"><defs><style>.cls-1{fill:none;}.cls-2{font-size:111.84px;font-family:Alta_regular, Alta;}.cls-2,.cls-5{fill:#ffc35a;}.cls-3{font-size:22.22px;font-family:Calgary-Regular;}.cls-3,.cls-6,.cls-7{fill:#c89132;}.cls-4{clip-path:url(#clip-path);}.cls-7{font-size:23.68px;font-family:LoveloBlack, Lovelo;}</style><clipPath id="clip-path"><rect id="SVGID" class="cls-1" x="33.86" y="17.94" width="282.62" height="219.33"/></clipPath></defs><text class="cls-2" transform="translate(76.96 327.34)">F</text><text class="cls-2" transform="translate(139.59 327.34)">a</text><text class="cls-2" transform="translate(228.38 327.34)">f</text><text class="cls-3" transform="translate(39 387.42)">C</text><text class="cls-3" transform="translate(64.49 387.42)">o</text><text class="cls-3" transform="translate(91.26 387.42)">n</text><text class="cls-3" transform="translate(117.53 387.42)">s</text><text class="cls-3" transform="translate(140.59 387.42)">u</text><text class="cls-3" transform="translate(166.92 387.42)">l</text><text class="cls-3" transform="translate(189.92 387.42)">t</text><text class="cls-3" transform="translate(216.12 387.42)">a</text><text class="cls-3" transform="translate(244.42 387.42)">n</text><text class="cls-3" transform="translate(270.69 387.42)">c</text><text class="cls-3" transform="translate(296.18 387.42)">y</text><g class="cls-4"><path class="cls-5" d="M219.94,164.37l24.57-60.21-21.6-31.3-20.16,49.62,17.19,41.89m51-10.92L249.2,122.68l-23.06,56.8,17.14,41.76ZM196.85,108.1l24.38-59.16L199.51,18.06,179.7,66.32Z"/><polyline class="cls-6" points="103.85 104.16 158.15 237.18 192.22 237.18 125.45 72.86 103.85 104.16"/><polyline class="cls-6" points="77.45 153.45 107.26 226.58 33.87 237.18 145.66 237.18 99.16 122.68 77.45 153.45"/><polyline class="cls-6" points="233.88 225.24 148.86 18.06 127.13 48.94 204.71 237.18 316.5 237.18 233.88 225.24"/></g><text class="cls-7" transform="translate(11.8 358.87)">f</text><text class="cls-7" transform="translate(34.89 358.87)">a</text><text class="cls-7" transform="translate(62.18 358.87)">s</text><text class="cls-7" transform="translate(86.54 358.87)">t</text><text class="cls-7" transform="translate(111.32 358.87)"> </text><text class="cls-7" transform="translate(129.88 358.87)">a</text><text class="cls-7" transform="translate(157.18 358.87)">n</text><text class="cls-7" transform="translate(185.68 358.87)">d</text><text class="cls-7" transform="translate(214.18 358.87)"> </text><text class="cls-7" transform="translate(232.74 358.87)">f</text><text class="cls-7" transform="translate(255.82 358.87)">i</text><text class="cls-7" transform="translate(274.85 358.87)">r</text><text class="cls-7" transform="translate(301.2 358.87)">s</text><text class="cls-7" transform="translate(325.56 358.87)">t</text></svg>